<?xml version="1.0" standalone="no"?><!DOCTYPE svg PUBLIC "-//W3C//DTD SVG 1.1//EN" "http://www.w3.org/Graphics/SVG/1.1/DTD/svg11.dtd"><svg t="1679589119465" class="icon" viewBox="0 0 1024 1024" version="1.1" xmlns="http://www.w3.org/2000/svg" p-id="1166" xmlns:xlink="http://www.w3.org/1999/xlink" width="200" height="200"><path d="M581.09375 979.71875H463.34375v-86.71875c-27.84375-4.21875-55.125-11.53125-81.375-21.75l-43.3125 75-101.90625-58.875 43.5-75.28125c-21.9375-17.625-41.8125-37.59375-59.4375-59.4375L145.4375 796.0625 86.5625 694.15625l75-43.3125c-10.21875-26.25-17.53125-53.53125-21.75-81.375H53.09375V451.625H139.8125c4.21875-27.84375 11.53125-55.125 21.75-81.375l-75-43.3125L145.4375 224.9375l75.28125 43.5c17.625-21.9375 37.59375-41.8125 59.4375-59.4375l-43.5-75.28125L338.5625 74.84375l43.3125 75c26.25-10.21875 53.53125-17.53125 81.375-21.84375V41.375h117.75v86.625c27.84375 4.3125 55.125 11.53125 81.375 21.84375l43.3125-75 102 58.875-43.5 75.28125c21.9375 17.625 41.8125 37.59375 59.4375 59.4375l75.28125-43.5 58.875 101.90625-75 43.3125c10.21875 26.25 17.53125 53.53125 21.75 81.375h86.71875v117.75h-86.71875c-4.21875 27.84375-11.53125 55.125-21.75 81.375l75 43.3125L899.09375 796.0625l-75.28125-43.5c-17.625 21.9375-37.59375 41.8125-59.4375 59.4375l43.5 75.28125-102 58.875-43.3125-75c-26.25 10.21875-53.53125 17.53125-81.375 21.75v86.8125z m-82.03125-35.71875h46.40625v-82.59375l15.84375-1.78125c35.0625-3.84375 69.28125-13.03125 101.625-27.1875l14.625-6.375 41.25 71.53125 40.21875-23.15625-41.34375-71.8125 12.84375-9.46875c28.40625-21 53.4375-46.03125 74.34375-74.34375l9.46875-12.84375L886.0625 747.3125l23.15625-40.21875-71.53125-41.25 6.375-14.625c14.15625-32.4375 23.34375-66.65625 27.1875-101.625l1.78125-15.84375h82.59375v-46.40625h-82.59375l-1.78125-15.84375c-3.84375-35.0625-13.03125-69.28125-27.28125-101.71875l-6.375-14.625 71.53125-41.25-23.0625-40.21875-71.71875 41.4375-9.46875-12.84375c-21-28.40625-46.03125-53.4375-74.34375-74.34375l-12.84375-9.46875 41.4375-71.71875-40.21875-23.15625-41.25 71.53125-14.625-6.375c-32.34375-14.15625-66.5625-23.34375-101.71875-27.28125l-15.84375-1.78125V77.09375h-46.40625v82.59375l-15.84375 1.78125c-35.0625 3.9375-69.28125 13.03125-101.71875 27.28125l-14.625 6.375-41.25-71.53125-40.125 23.15625 41.4375 71.71875-12.9375 9.46875c-28.40625 21-53.4375 46.03125-74.34375 74.34375L230.1875 315.125l-71.71875-41.4375-23.15625 40.125 71.53125 41.25-6.375 14.625c-14.15625 32.4375-23.34375 66.65625-27.28125 101.71875l-1.78125 15.84375H88.8125v46.40625h82.59375l1.78125 15.84375c3.84375 35.0625 13.03125 69.28125 27.1875 101.625l6.375 14.625-71.53125 41.25 23.15625 40.21875 71.71875-41.4375 9.46875 12.84375c21 28.40625 46.03125 53.4375 74.34375 74.34375l12.84375 9.46875-41.4375 71.71875L325.4375 897.3125l41.25-71.53125 14.625 6.375c32.4375 14.15625 66.65625 23.34375 101.71875 27.28125l15.84375 1.78125v82.78125zM522.21875 726.6875c-119.15625 0-216.1875-96.9375-216.1875-216.1875 0-119.15625 96.9375-216.1875 216.1875-216.1875 119.15625 0 216.1875 96.9375 216.1875 216.1875 0 119.25-96.9375 216.1875-216.1875 216.1875z m0-396.65625c-99.46875 0-180.46875 81-180.46875 180.46875 0 99.5625 81 180.46875 180.46875 180.46875 99.5625 0 180.46875-81 180.46875-180.46875s-80.90625-180.46875-180.46875-180.46875z" fill="" p-id="1167"></path></svg>